<?xml version="1.0" standalone="no"?>
<!DOCTYPE svg PUBLIC "-//W3C//DTD SVG 20010904//EN"
 "http://www.w3.org/TR/2001/REC-SVG-20010904/DTD/svg10.dtd">
<svg version="1.0" xmlns="http://www.w3.org/2000/svg"
 width="512.000000pt" height="512.000000pt" viewBox="0 0 512.000000 512.000000"
 preserveAspectRatio="xMidYMid meet">
<metadata>
Created by potrace 1.11, written by Peter Selinger 2001-2013
</metadata>
<g transform="translate(0.000000,512.000000) scale(0.100000,-0.100000)"
fill="#000000" stroke="none">
<path d="M0 2560 l0 -2560 2560 0 2560 0 0 2560 0 2560 -2560 0 -2560 0 0
-2560z m4446 2406 c28 -13 65 -27 81 -30 53 -12 98 -60 148 -159 l47 -93 -4
-255 c-4 -279 -5 -284 -70 -346 -70 -67 -317 -203 -368 -203 -29 0 -91 -17
-210 -57 -25 -8 -117 -23 -205 -33 -88 -10 -180 -25 -205 -33 -25 -8 -106 -20
-180 -27 -74 -7 -153 -19 -174 -27 -53 -18 -798 -30 -978 -15 -130 11 -165 21
-303 87 -50 24 -50 24 -480 28 -324 3 -437 7 -460 17 -16 7 -79 16 -140 20
l-110 8 -54 59 c-29 32 -63 78 -75 103 -18 38 -25 44 -46 42 -14 -2 -32 -10
-40 -17 -9 -8 -52 -14 -112 -17 l-97 -4 -11 28 c-5 15 -15 41 -21 58 -13 34
-3 157 14 178 6 7 12 50 15 95 7 133 49 193 183 261 l72 36 144 0 143 0 78
-39 c43 -22 106 -63 140 -91 77 -64 257 -262 282 -310 30 -56 176 -194 256
-240 77 -45 138 -82 189 -115 l50 -32 135 7 c90 5 147 12 172 23 21 10 55 17
77 17 55 0 302 39 324 51 10 5 57 16 105 23 112 17 175 48 286 141 49 41 94
75 100 75 6 0 41 29 76 65 36 36 88 82 117 102 28 19 57 48 63 64 7 16 15 29
19 29 23 0 247 196 413 362 26 26 69 59 96 72 27 14 63 37 81 51 59 51 113 64
256 64 116 1 135 -2 181 -23z m-970 -2846 c70 -13 114 -29 114 -42 0 -6 14
-23 30 -38 27 -25 30 -34 30 -87 0 -68 -5 -74 -85 -114 -27 -14 -61 -32 -75
-40 -14 -8 -26 -15 -28 -16 -2 0 9 -20 24 -42 l27 -41 -6 -193 c-6 -216 -16
-266 -69 -348 -33 -51 -42 -58 -114 -87 l-79 -32 -310 0 c-308 0 -373 5 -491
41 -47 14 -122 11 -157 -7 -24 -13 -71 -18 -207 -22 -168 -5 -177 -4 -220 18
-25 12 -49 29 -53 36 -4 8 -16 14 -26 14 -22 0 -86 79 -101 126 -7 19 -15 34
-20 34 -5 0 -10 10 -12 23 -4 29 -41 25 -81 -9 -16 -14 -43 -32 -61 -41 -17
-9 -37 -25 -44 -35 -8 -11 -55 -53 -104 -94 -50 -42 -102 -89 -115 -105 -14
-16 -31 -29 -38 -29 -17 0 -95 -90 -95 -109 0 -34 -32 -51 -94 -51 -61 0 -62
1 -99 45 -21 25 -43 60 -48 78 -26 79 -31 87 -48 77 -9 -4 -43 -31 -76 -59
-32 -28 -65 -51 -73 -51 -7 0 -30 -11 -50 -25 -47 -32 -102 -34 -102 -4 0 17
4 20 23 15 14 -3 34 2 52 15 17 11 44 26 61 33 18 8 64 40 103 73 56 45 71 62
67 78 -3 11 -9 55 -12 98 -6 65 -5 77 8 77 11 0 17 -16 22 -62 4 -35 10 -73
13 -85 l5 -22 41 19 c23 10 80 30 127 45 47 15 90 30 95 35 6 4 48 24 95 44
47 21 103 46 126 57 23 10 54 19 70 19 16 0 40 9 54 20 14 11 33 20 42 20 10
0 41 9 70 19 62 23 186 51 222 51 14 0 41 7 60 17 l35 16 -46 56 c-25 31 -48
62 -51 70 -4 11 -57 12 -328 6 -292 -6 -325 -5 -358 10 -20 10 -36 24 -36 31
0 8 -3 14 -8 14 -26 0 -47 240 -21 255 5 4 14 18 19 31 7 16 17 24 34 24 13 0
39 7 58 15 19 8 75 17 124 20 87 7 91 6 164 -28 41 -19 101 -57 132 -85 32
-28 66 -53 77 -57 11 -3 46 -44 78 -91 l58 -86 95 7 c108 8 213 28 267 50 21
9 63 22 93 30 132 31 215 57 239 74 14 10 71 41 126 70 55 29 114 63 130 76
17 12 41 25 55 30 14 4 58 22 98 41 40 19 79 34 86 34 14 0 100 27 131 41 40
18 275 24 361 9z"/>
<path d="M4108 4941 c-26 -11 -62 -31 -79 -46 -18 -14 -53 -37 -78 -49 -25
-13 -69 -46 -96 -72 -165 -160 -260 -246 -337 -307 -48 -38 -90 -77 -93 -88
-4 -10 -27 -33 -53 -50 -26 -18 -79 -63 -118 -101 -38 -38 -84 -76 -101 -86
-17 -9 -68 -48 -114 -85 -102 -83 -158 -110 -269 -127 -47 -7 -94 -18 -105
-23 -25 -13 -245 -46 -307 -47 -26 0 -70 -9 -98 -20 -36 -14 -74 -20 -130 -20
-43 0 -81 -4 -84 -8 -6 -10 107 -58 189 -80 88 -23 988 -22 1053 2 23 8 109
22 190 31 81 9 167 22 192 30 41 13 157 29 285 38 28 2 79 14 115 26 129 44
156 51 188 51 50 0 296 132 360 193 67 63 67 66 67 344 0 246 0 252 -23 282
-13 17 -31 51 -42 75 -21 51 -57 81 -127 106 -26 10 -66 25 -88 34 -59 23
-235 21 -297 -3z"/>
<path d="M670 4631 c-8 -5 -41 -21 -73 -36 -32 -15 -71 -40 -86 -54 -37 -34
-71 -102 -71 -140 0 -27 4 -30 52 -40 82 -18 138 -47 138 -71 0 -11 7 -23 15
-26 8 -3 17 -25 21 -50 3 -24 12 -49 20 -55 8 -6 14 -18 14 -26 0 -19 49 -9
66 13 6 7 15 14 21 14 5 0 29 20 53 45 24 25 50 45 57 45 7 0 13 5 13 10 0 6
7 10 15 10 8 0 15 4 15 9 0 5 10 11 23 14 12 3 40 12 62 20 22 9 76 20 120 26
78 11 135 29 135 43 0 3 -39 43 -87 87 -61 56 -115 95 -175 126 l-86 45 -124
-1 c-67 0 -130 -4 -138 -8z"/>
<path d="M1278 4340 c-9 -11 -37 -21 -65 -25 -183 -25 -260 -56 -359 -146 -28
-26 -69 -56 -92 -68 -23 -12 -42 -26 -42 -32 0 -23 42 -90 87 -139 l48 -51 95
-5 c52 -3 115 -13 140 -21 36 -12 120 -16 425 -20 419 -4 405 -7 295 53 -178
99 -332 226 -380 314 -10 19 -45 63 -77 97 -56 59 -59 61 -75 43z"/>
<path d="M440 4194 l0 -144 74 0 c53 0 77 4 86 15 7 8 23 15 37 15 31 0 40 25
21 59 -9 14 -19 40 -22 58 -4 17 -14 37 -22 44 -8 6 -14 19 -14 29 0 19 -49
43 -120 59 l-40 9 0 -144z"/>
<path d="M402 4155 c0 -16 2 -22 5 -12 2 9 2 23 0 30 -3 6 -5 -1 -5 -18z"/>
<path d="M3211 2093 l-44 -4 50 -34 c56 -37 130 -116 176 -187 18 -27 39 -48
47 -47 8 0 51 19 95 42 78 42 80 43 83 83 3 36 -2 47 -37 84 -35 38 -48 45
-108 56 -65 13 -166 15 -262 7z"/>
<path d="M3003 1948 c-82 -83 -121 -131 -148 -183 -21 -38 -42 -76 -48 -84
-10 -11 -6 -13 18 -8 17 3 77 11 135 17 58 7 119 18 137 26 17 8 43 14 57 14
14 0 48 9 74 21 71 31 84 37 124 49 l37 11 -20 34 c-51 85 -196 215 -241 215
-7 0 -64 -51 -125 -112z"/>
<path d="M3005 2040 c-16 -4 -59 -21 -96 -37 -36 -17 -76 -34 -90 -38 -13 -4
-42 -20 -64 -35 -22 -15 -85 -52 -140 -81 -55 -29 -111 -60 -125 -69 -22 -15
-127 -47 -230 -70 -19 -5 -69 -20 -110 -35 -52 -18 -112 -29 -195 -37 -66 -5
-122 -11 -124 -13 -5 -5 62 -96 88 -119 20 -18 23 -18 153 14 73 18 147 39
163 48 19 9 67 17 130 19 72 4 121 12 175 30 41 14 108 28 148 31 60 4 72 8
72 22 0 10 6 22 13 28 7 6 29 42 47 79 24 49 63 97 134 171 54 56 95 102 90
101 -5 -1 -22 -5 -39 -9z"/>
<path d="M1244 1970 c-28 -4 -60 -12 -72 -19 -11 -6 -32 -11 -46 -11 -15 0
-26 -6 -26 -14 0 -7 -7 -19 -15 -26 -24 -20 -20 -139 7 -196 35 -76 39 -77
376 -67 l292 8 -50 75 c-27 41 -62 81 -77 89 -15 7 -50 34 -78 59 -58 52 -183
113 -229 111 -17 -1 -54 -5 -82 -9z"/>
<path d="M3365 1768 c-34 -11 -52 -18 -109 -43 -62 -28 -183 -52 -406 -82
l-55 -8 -12 -50 c-11 -47 -23 -112 -42 -230 -9 -58 -17 -78 -47 -122 -29 -44
-72 -78 -114 -92 -19 -6 -45 -18 -58 -25 -22 -12 -18 -13 50 -27 53 -10 154
-14 368 -14 l295 0 73 29 c66 27 76 35 106 83 46 74 60 155 61 349 l0 161 -29
41 c-31 45 -34 46 -81 30z"/>
<path d="M2610 1601 c-36 -10 -74 -22 -85 -28 -11 -6 -70 -13 -130 -15 -83 -4
-121 -10 -150 -25 -22 -11 -95 -33 -162 -48 l-121 -28 30 -48 c42 -68 193
-200 254 -221 27 -9 76 -27 109 -38 68 -25 100 -22 188 13 63 26 117 69 117
92 0 8 4 15 10 15 14 0 38 60 43 110 3 25 10 68 15 95 6 28 13 71 16 98 l6 47
-38 -1 c-20 0 -66 -9 -102 -18z"/>
<path d="M1875 1425 c-16 -7 -75 -21 -130 -30 -100 -18 -152 -34 -109 -35 26
0 34 -10 63 -80 27 -63 79 -130 102 -130 9 0 22 -7 30 -16 7 -8 31 -25 53 -36
38 -19 52 -21 198 -15 127 5 165 10 195 25 l37 19 -60 22 c-32 12 -63 23 -69
25 -29 10 -197 172 -224 216 -33 53 -39 56 -86 35z"/>
<path d="M1540 1343 c-14 -3 -36 -13 -50 -23 -14 -9 -45 -20 -70 -24 -24 -4
-51 -13 -60 -20 -8 -7 -28 -16 -44 -20 -15 -4 -67 -26 -116 -50 -48 -23 -120
-53 -161 -65 -41 -12 -94 -32 -119 -44 -37 -18 -45 -27 -44 -47 3 -41 32 -109
66 -151 27 -34 37 -39 73 -39 43 0 65 13 65 40 0 20 87 120 105 120 7 0 22 10
32 23 10 13 60 59 111 102 52 43 99 87 105 97 7 10 35 32 62 47 28 16 57 36
64 45 7 9 12 15 10 15 -2 -1 -15 -4 -29 -6z"/>
</g>
</svg>
